<?xml version="1.0" encoding="UTF-8" standalone="no"?>
<svg
   version="1.1"
   id="svg322"
   sodipodi:docname="pieces.svg"
   width="1080"
   height="720"
   inkscape:version="1.2.2 (b0a8486541, 2022-12-01)"
   xmlns:inkscape="http://www.inkscape.org/namespaces/inkscape"
   xmlns:sodipodi="http://sodipodi.sourceforge.net/DTD/sodipodi-0.dtd"
   xmlns="http://www.w3.org/2000/svg"
   xmlns:svg="http://www.w3.org/2000/svg">
  <sodipodi:namedview
     id="namedview324"
     bordercolor="#000000"
     borderopacity="0.25"
     inkscape:showpageshadow="2"
     inkscape:pageopacity="0"
     inkscape:pagecheckerboard="0"
     inkscape:deskcolor="#d1d1d1"
     showgrid="false"
     inkscape:zoom="0.79137034"
     inkscape:cx="427.10724"
     inkscape:cy="307.69412"
     inkscape:window-width="1920"
     inkscape:window-height="1011"
     inkscape:window-x="0"
     inkscape:window-y="32"
     inkscape:window-maximized="1"
     inkscape:current-layer="svg322"
     pagecolor="#ffffff" />
  <defs
     id="defs2" />
  <path
     stroke="none"
     d="m 278.6408,347.33486 q 1.56668,-1.81952 3.94599,-2.58765 3.52088,-1.13678 6.80928,0.58634 3.33598,1.70778 4.47297,5.22864 1.15151,3.56884 -0.57084,6.85707 -1.66,3.32057 -5.18111,4.45733 -2.37928,0.76736 -4.69851,0.25646 l -0.60631,2.19177 -2.61704,12.56185 q -0.41641,2.13044 -2.19747,3.28385 -1.78201,1.15295 -3.88026,0.67514 l -0.67825,-0.14955 q -2.08317,-0.4309 -3.23617,-2.21294 -1.1841,-1.87679 -0.75378,-3.95996 l 1.48868,-6.94346 -0.14414,0.20421 -1.37201,1.2837 -10.7234,6.98226 q -1.78178,1.15344 -3.94334,0.64236 -2.03563,-0.44565 -3.23614,-2.21295 l -0.34201,-0.57286 q -1.16844,-1.82936 -0.7526,-3.9601 0.47881,-2.09837 2.2603,-3.25171 l 5.82287,-3.77132 -0.55413,-1.71262 -6.9289,0.34555 q -2.11972,0.10574 -3.75043,-1.36323 -1.56767,-1.43796 -1.67396,-3.55797 l -0.0575,-0.66471 q -0.0892,-2.23032 1.30065,-3.78255 1.48553,-1.5829 3.60545,-1.68903 l 12.78189,-0.60644 q 0.98088,-0.054 1.86362,0.2394 l 0.23542,0.0845 -5.28317,-4.80938 q -1.583,-1.48557 -1.6901,-3.60514 -0.12164,-2.16752 1.30071,-3.78264 l 0.46349,-0.51737 q 1.43786,-1.56771 3.55776,-1.67418 2.11978,-0.10577 3.70272,1.37899 l 9.48405,8.70742 0.0277,0.0428 1.758,1.37661"
     id="path164"
     style="fill:#000000;fill-opacity:0.1" />
  <path
     stroke="none"
     d="m 349.02578,236.82933 q 1.14487,-1.1881 2.80748,-1.18266 1.66067,-0.0656 2.88448,1.11451 l 21.56017,20.78841 q 1.18771,1.14522 1.21844,2.84211 0.0294,1.62609 -1.11546,2.81399 l -2.42939,2.5195 q -1.14524,1.18756 -2.80599,1.25354 -1.66209,-0.005 -2.84987,-1.15041 l -6.94665,-6.69807 -15.56621,13.1906 0.35611,2.07976 q 0.0888,2.9333 -1.92403,5.02096 -2.01298,2.08756 -4.94765,2.10559 -2.89862,0.0528 -4.98625,-1.96006 -2.12332,-2.04786 -2.17679,-4.94614 -0.0529,-2.89858 1.96015,-4.98627 2.01287,-2.08763 4.91148,-2.1405 l 2.0194,0.21049 12.61458,-16.03627 -6.87483,-6.62877 q -1.22433,-1.17941 -1.25356,-2.80601 -0.0308,-1.69666 1.11438,-2.88448 l 2.42944,-2.51951"
     id="path170"
     style="fill:#000000;fill-opacity:0.1" />
  <path
     stroke="none"
     d="m 826.43251,304.39849 q 3.37346,1.6379 4.57966,5.22284 l 0.39712,1.47152 0.0479,0.24505 0.01,0.11124 2.49785,-0.56732 3.82154,-0.20075 q 8.47854,0.27931 18.35227,5.01353 l 0.0976,0.0274 q 2.65411,1.28791 3.01647,5.35302 0.36139,4.06571 -1.82062,8.56418 -2.18169,4.49874 -5.59941,6.73098 -3.41689,2.2325 -6.07127,0.94413 l -0.0931,-0.0318 q -9.8299,-4.82452 -15.29665,-11.31147 -1.47433,-1.77187 -2.32074,-3.34912 l -1.03127,-2.11186 q -0.77732,0.45621 -1.64568,0.75774 -3.541,1.22752 -6.91491,-0.40868 -3.37393,-1.63697 -4.60166,-5.17778 -1.27274,-3.56253 0.38604,-6.98138 1.65936,-3.41848 5.26656,-4.66971 3.56275,-1.27278 6.93646,0.36493"
     id="path172"
     style="fill:#000000;fill-opacity:0.1" />
  <path
     stroke="none"
     d="m 104.91698,549.9545 17.65938,15.94796 15.63379,-17.8916 q 1.36587,-1.48213 2.84529,-0.16638 l 2.96462,2.73155 q 1.47938,1.31593 0.11349,2.79809 l -20.62783,23.29202 -0.44912,0.0254 -0.30241,-0.0326 -9.40371,-8.36602 -1.00645,-0.88996 -12.687579,-11.4302 q -1.47955,-1.31584 -0.16271,-2.79532 l 2.675779,-3.06141 q 1.31576,-1.47945 2.74532,-0.15987 m 2.03376,-18.34981 27.25366,-1.59091 q 1.89674,-0.11097 2.05458,1.73318 l 0.77797,13.32727 -14.69699,16.78474 -16.49427,-14.86395 -0.784,-13.42731 q -0.0582,-1.8498 1.88884,-1.96337"
     id="path178"
     style="fill:#000000;fill-opacity:0.1" />
  <path
     stroke="none"
     d="m 139.33874,305.84186 -3.36814,2.24915 -4.22015,-6.32064 3.36854,-2.24821 -2.27604,-3.41032 -3.36802,2.24913 -4.22037,-6.32085 5.86322,-3.91455 5.9082,1.10561 13.95529,-13.40579 7.15207,-4.77553 16.35298,24.49273 -7.15215,4.77559 -17.78668,7.66713 -1.21632,5.92241 -5.86328,3.91467 -4.22009,-6.32038 3.36806,-2.24922 -2.27619,-3.41031"
     id="path184"
     style="fill:#000000;fill-opacity:0.1" />
  <path
     stroke="none"
     d="m 657.63517,150.95672 q -5.54657,1.42901 -8.44376,6.33772 -2.94803,4.99483 -1.49408,10.49803 1.47225,5.5719 6.38068,8.46918 4.90869,2.89752 10.49811,1.49435 5.52084,-1.38645 8.46915,-6.38072 2.89715,-4.90886 1.46851,-10.45532 -1.44651,-5.61498 -6.35526,-8.51223 -4.90877,-2.89735 -10.52376,-1.45061 m 13.12866,19.07104 q -2.388,4.0479 -6.88272,5.16912 -4.51931,1.16432 -8.48069,-1.17385 -3.96188,-2.33742 -5.12578,-6.85745 -1.18972,-4.4766 1.19935,-8.52364 2.33727,-3.96179 6.85743,-5.12598 4.51945,-1.16436 8.48083,1.17397 3.96185,2.33733 5.12577,6.85739 1.16444,4.5194 -1.1739,8.48064 m 10.66782,-10.88896 q 2.19555,8.37944 -2.22636,15.87175 -4.42152,7.49248 -12.84447,9.66241 -8.42249,2.1698 -15.91467,-2.25213 -7.44931,-4.39638 -9.66249,-12.84453 -2.17082,-8.42218 2.25199,-15.91435 4.42174,-7.49257 12.81933,-9.61941 8.49115,-2.18746 15.93998,2.20888 7.49299,4.42145 9.63702,12.88783"
     id="path186"
     style="fill:#000000;fill-opacity:0.1" />
  <path
     stroke="none"
     d="m 743.87164,414.35485 -5.12109,-12.7607 9.14421,-9.16537 -2.53897,-10.88791 13.92165,-4.77945 1.29478,3.3595 -1.67983,0.51268 q -2.87758,1.15354 -4.09831,4.01686 -1.2222,2.86113 -0.0489,5.78421 1.15358,2.87759 4.016,4.09903 2.89837,1.31522 5.77543,0.16175 l 1.33577,-0.69869 2.3754,6.3201 -1.28996,0.41024 q -2.87777,1.15264 -4.09833,4.01685 -1.20413,2.90753 -0.0487,5.78434 1.17315,2.92362 4.0344,4.14546 2.8613,1.22229 5.73833,0.0677 l 1.00164,-0.45693 1.43466,3.84255 -12.89986,5.17719 -4.62565,-8.70345 -13.62098,-0.24377 m 24.7762,-12.09914 q 1.70796,-0.30904 3.26879,0.35797 2.09966,0.93546 2.95611,3.06995 0.85719,2.13419 -0.0331,4.21537 -0.70421,1.73667 -2.23461,2.62074 l 0.0906,-0.042 -0.86236,0.40202 q -2.1342,0.85708 -4.28026,-0.0592 l 0.0463,-0.0232 q -2.08068,-0.88919 -2.93772,-3.02307 -0.83844,-2.08783 -0.0332,-4.24325 l 0.0437,-0.0265 q 0.93615,-2.09864 3.02383,-2.93683 l 0.94672,-0.32621 m -9.12911,-9.5897 q -2.08111,-0.88784 -2.91995,-2.97596 -0.85715,-2.13419 0.0146,-4.26154 l -0.0451,0.0252 q 0.93549,-2.09964 3.06997,-2.95617 l 1.24374,-0.39144 q 1.47611,-0.21534 2.97146,0.42478 2.0994,0.93525 2.95594,3.06979 0.83844,2.08785 -0.0506,4.16887 -0.64823,1.60695 -1.97453,2.46284 l -0.0193,0.069 -0.98265,0.50458 q -2.08803,0.83841 -4.25253,-0.12499"
     id="path188"
     style="fill:#000000;fill-opacity:0.1" />
  <path
     stroke="none"
     d="m 301.90156,622.00347 q -6.53605,-2.89888 -9.75345,-8.90323 l 2.64082,-20.73239 12.09609,-3.95391 -0.1551,35.26274 q -2.58466,-0.6819 -4.82732,-1.67308 m 7.34508,-27.9965 27.79956,14.8302 -27.49821,-0.17457 -0.3012,-14.65539"
     id="path190"
     style="fill:#000000;fill-opacity:0.1" />
  <path
     stroke="none"
     d="m 169.92536,436.87658 q -0.50273,1.78017 -2.45858,2.62992 -1.87977,0.76766 -4.01039,0.21804 l -0.28703,-0.087 -0.19265,-0.0522 -36.71106,-10.37884 -0.70241,-15.52674 4.32998,1.22488 4.8947,6.57965 8.60612,2.64139 -7.49714,-16.30471 5.0125,-0.45271 16.8373,21.12738 7.6919,2.38244 0.1458,0.0387 0.77058,0.21478 q 1.83555,0.67539 2.85659,2.21027 1.2345,1.69966 0.7166,3.52859"
     id="path192"
     style="fill:#000000;fill-opacity:0.1" />
  <path
     stroke="none"
     d="m 131.6948,156.55984 0.45137,-0.19698 q 2.50437,-0.98932 5.00311,-0.72837 l 2.99693,0.76261 0.89847,0.30446 1.54838,0.40596 3.90042,-0.13299 q 0.80073,-0.19753 1.70281,-0.54186 l 0.70099,-0.24698 4.90197,-0.42935 0.45011,0.0473 -0.0886,20.64991 -0.45036,-0.0473 -4.90196,0.4286 q -0.30021,0.099 -0.70074,0.24693 -0.90153,0.34685 -1.70304,0.54208 l -3.90046,0.13303 -1.54828,-0.40593 -0.89857,-0.30455 -2.99684,-0.76276 q -2.49877,-0.26077 -5.0031,0.72835 l -0.45126,0.19689 -1.2515,0.34485 0.0888,-20.64982 1.25145,-0.34489 m 24.46201,20.55539 0.15995,-37.19985 4.19983,0.0186 -0.15974,37.19949 -4.20003,-0.0176"
     id="path198"
     style="fill:#000000;fill-opacity:0.1" />
  <path
     stroke="none"
     d="m 557.56672,495.84327 1.25827,-3.84963 7.22406,2.36106 -1.25857,3.84944 3.89742,1.27349 1.25817,-3.84958 7.224,2.36056 -2.18957,6.70118 -5.32818,2.78257 -2.68705,19.16369 -2.67169,8.17473 -27.99261,-9.14884 2.67146,-8.17477 9.24504,-17.02031 -2.70424,-5.40721 2.19033,-6.70124 7.22391,2.36106 -1.25813,3.84968 3.89708,1.27346"
     id="path891"
     style="fill:#000000;fill-opacity:0.1" />
  <path
     stroke="none"
     d="m 237.77361,515.84902 -0.0927,4.04881 -7.59793,-0.17538 0.0927,-4.04921 -4.09904,-0.0939 -0.0939,4.04904 -7.59805,-0.17547 0.16209,-7.04821 4.29912,-4.20097 -2.96069,-19.123 0.19879,-8.59805 29.44203,0.67832 -0.19867,8.59792 -3.93752,18.96432 4.14948,4.39677 -0.16208,7.04818 -7.59768,-0.17636 0.0928,-4.04876 -4.09918,-0.0949"
     id="path893"
     style="fill:#000000;fill-opacity:0.1" />
  <path
     stroke="none"
     d="m 256.19179,70.090038 0.9362,-3.940382 7.39421,1.757438 -0.93714,3.940086 3.98876,0.948773 0.93733,-3.939928 7.39415,1.757222 -1.63041,6.859012 -5.08106,3.211457 -1.10212,19.319404 -1.99073,8.3663 -28.65044,-6.81649 1.99093,-8.366387 7.81337,-17.722802 -3.13867,-5.16703 1.63014,-6.859123 7.39414,1.757136 -0.93636,3.940324 3.98881,0.948882"
     id="path895"
     style="fill:#000000;fill-opacity:0.1" />
  <path
     stroke="none"
     d="m 780.51186,110.41661 q -0.15182,7.14895 -4.45028,12.43392 l -20.1455,5.56505 -8.31515,-9.63412 32.59147,-13.46422 q 0.36813,2.64758 0.31911,5.09899 m -28.66227,4.0274 2.9538,-31.368991 10.45027,25.435721 -13.40433,5.93256"
     id="path897"
     style="fill:#000000;fill-opacity:0.1" />
  <path
     stroke="none"
     d="m 418.26461,363.67104 q 1.2321,7.04324 -1.96402,13.05918 l -18.69019,9.35277 -10.02011,-7.8454 29.37562,-19.50788 q 0.87296,2.52643 1.29865,4.94128 m -27.34413,9.48981 -3.16308,-31.34865 15.1679,22.9372 -12.00494,8.41143"
     id="path899"
     style="fill:#000000;fill-opacity:0.1" />
  <path
     stroke="none"
     d="m 833.50976,482.07399 q 6.84637,2.06338 10.7861,7.62033 l -0.0405,20.89999 -11.51033,5.42795 -4.23258,-35.00809 q 2.64933,0.35424 4.99787,1.05981 m -3.80561,28.69283 -29.42834,-11.25661 27.30623,-3.24753 2.12211,14.50412"
     id="path901"
     style="fill:#000000;fill-opacity:0.1" />
  <path
     stroke="none"
     d="m 626.06774,569.92908 q -0.18564,-1.63972 0.87948,-2.91662 1.00777,-1.3218 2.69759,-1.51191 l 29.7613,-3.35649 q 1.63935,-0.18561 2.9667,0.8727 1.27127,1.01427 1.45605,2.65364 l 0.39232,3.47801 q 0.18556,1.6396 -0.82374,2.96092 -1.06352,1.27716 -2.70329,1.46204 l -9.58915,1.08187 0.23771,20.40176 1.82892,1.05206 q 2.31661,1.8017 2.64127,4.68363 0.32451,2.88189 -1.53257,5.15411 -1.80788,2.26643 -4.68884,2.59208 -2.93141,0.33022 -5.19831,-1.47669 -2.26658,-1.80773 -2.59203,-4.68895 -0.32436,-2.88176 1.48224,-5.14835 l 1.44991,-1.42157 -4.31233,-19.94229 -9.48988,1.07082 q -1.68913,0.19138 -2.96068,-0.82367 -1.32735,-1.05725 -1.51191,-2.69754 l -0.39196,-3.47783"
     id="path903"
     style="fill:#000000;fill-opacity:0.1" />
  <path
     stroke="none"
     d="m 644.83429,403.3687 q -0.23526,1.63314 -1.58602,2.60083 -1.30891,1.02441 -2.99171,0.78289 l -29.64555,-4.25855 q -1.63312,-0.2353 -2.65048,-1.59276 -0.97489,-1.30205 -0.73997,-2.93534 l 0.49709,-3.46446 q 0.23374,-1.63323 1.54388,-2.65739 1.35056,-0.96831 2.98449,-0.73311 l 9.55176,1.37385 4.91598,-19.80238 -1.5057,-1.47833 q -1.78783,-2.32733 -1.37493,-5.1983 0.41236,-2.87054 2.78217,-4.60118 2.3206,-1.73816 5.19128,-1.32519 2.91979,0.42041 4.65767,2.74017 1.73798,2.32048 1.32529,5.1912 -0.41234,2.87057 -2.73271,4.60861 l -1.76154,1.0093 -0.858,20.38539 9.4529,1.35957 q 1.68259,0.24197 2.65728,1.5437 1.01734,1.35848 0.78265,2.99166 l -0.4961,3.46464"
     id="path905"
     style="fill:#000000;fill-opacity:0.1" />
  <path
     stroke="none"
     d="m 953.95496,215.34202 q 1.64259,0.15616 2.67271,1.46168 1.08475,1.25934 0.92267,2.95144 l -2.85796,29.81346 q -0.15606,1.64262 -1.46655,2.72242 -1.25424,1.03535 -2.8972,0.87718 l -3.48391,-0.33356 q -1.64261,-0.15606 -2.72746,-1.41639 -1.03024,-1.30425 -0.87277,-2.94673 l 0.92031,-9.60607 -20.01172,-3.97764 -1.40657,1.57292 q -2.24126,1.89458 -5.1278,1.61818 -2.88672,-0.27772 -4.72705,-2.56278 -1.84496,-2.23625 -1.56813,-5.12308 0.28235,-2.93635 2.5178,-4.78158 2.23623,-1.8451 5.12287,-1.56869 2.88678,0.27771 4.73183,2.51298 l 1.09172,1.71192 20.40299,-0.10361 0.91082,-9.50648 q 0.16162,-1.69226 1.41678,-2.72722 1.309,-1.08018 2.95151,-0.92253 l 3.48408,0.3336"
     id="path907"
     style="fill:#000000;fill-opacity:0.1" />
  <path
     stroke="none"
     d="m 544.70283,120.94564 -21.88886,-9.33086 -8.95848,22.00606 q -0.80925,1.84626 -2.63582,1.08376 l -3.69231,-1.61802 q -1.82728,-0.76199 -1.01817,-2.60897 l 11.92232,-28.7375 0.41682,-0.17051 0.29572,-0.0703 11.6149,4.84932 1.23976,0.51766 15.71723,6.67721 q 1.8275,0.76214 1.06396,2.5903 l -1.53347,3.76571 q -0.76198,1.82739 -2.54378,1.04488 m 4.04974,18.01272 -25.2514,10.37574 q -1.75722,0.72219 -2.50698,-0.96968 l -5.07405,-12.3481 8.43236,-20.6549 20.43459,8.68515 5.11192,12.44054 q 0.65672,1.73045 -1.14613,2.47168"
     id="path913"
     style="fill:#000000;fill-opacity:0.1" />
  <path
     stroke="none"
     d="m 272.52291,201.72758 -21.71696,-9.72433 -9.35413,21.8408 q -0.84199,1.83098 -2.65507,1.03649 l -3.66197,-1.68519 q -1.81327,-0.79429 -0.97022,-2.62666 l 12.43892,-28.51797 0.41788,-0.16682 0.29724,-0.0643 11.52512,5.05853 1.23075,0.53943 15.59406,6.96026 q 1.81309,0.79522 1.01742,2.60838 l -1.60095,3.73758 q -0.79534,1.81308 -2.56231,0.9985 m 3.72394,18.08288 -25.43464,9.91829 q -1.76911,0.69264 -2.48922,-1.01363 l -4.85018,-12.43779 8.80371,-20.49922 20.27467,9.05281 4.88643,12.53062 q 0.6271,1.74157 -1.19107,2.45047"
     id="path915"
     style="fill:#000000;fill-opacity:0.1" />
  <path
     stroke="none"
     d="m 703.23183,312.86382 12.59174,-20.19009 -20.36325,-12.24182 q -1.6988,-1.08481 -0.66337,-2.77165 l 2.16776,-3.39886 q 1.03509,-1.68758 2.73441,-0.60453 l 26.55788,16.20728 0.10519,0.43761 0.0216,0.30292 -6.58095,10.72908 -0.70343,1.14458 -9.0193,14.50099 q -1.03497,1.68784 -2.72244,0.65266 l -3.48467,-2.09563 q -1.6879,-1.03492 -0.641,-2.67417 m -18.42136,1.22657 -6.36099,-26.54823 q -0.44248,-1.84772 1.34418,-2.32762 l 12.98233,-3.11162 19.10938,11.51412 -11.73034,18.8521 -13.07973,3.13483 q -1.81059,0.3834 -2.26558,-1.51291"
     id="path919"
     style="fill:#000000;fill-opacity:0.1" />
  <path
     stroke="none"
     d="m 768.11979,604.35884 4.23486,-23.41477 -23.44658,-3.84575 q -1.97966,-0.37856 -1.64136,-2.32986 l 0.75781,-3.959 q 0.33668,-1.95139 2.31788,-1.57175 l 30.66826,5.2401 0.26056,0.36726 0.14511,0.26767 -2.14788,12.40189 -0.22955,1.32389 -3.01927,16.80767 q -0.33765,1.95119 -2.28841,1.61332 l -4.01223,-0.65939 q -1.9509,-0.33783 -1.5846,-2.24775 m -16.66231,7.95054 -15.72656,-22.31501 q -1.09472,-1.55294 0.38972,-2.65992 l 10.91265,-7.68972 22.01193,3.633 -3.92837,21.85357 -10.99366,7.74817 q -1.54062,1.02534 -2.66431,-0.56926"
     id="path921"
     style="fill:#000000;fill-opacity:0.1" />
  <path
     stroke="none"
     d="m 455.17173,578.7161 0.13117,13.74949 -11.85043,5.21381 -1.5939,11.0659 -14.70671,-0.60915 0.0159,-3.60049 1.75115,0.13322 q 3.09997,-0.0297 5.27877,-2.25053 2.17849,-2.22114 2.15048,-5.37017 -0.0297,-3.09975 -2.25048,-5.27869 -2.22225,-2.27866 -5.32161,-2.24932 l -1.49858,0.16504 0.0853,-6.75116 1.35082,0.0879 q 3.09985,-0.0298 5.27884,-2.25056 2.17824,-2.27125 2.15047,-5.37027 -0.03,-3.14989 -2.24954,-5.32925 -2.22138,-2.17863 -5.32051,-2.14987 l -1.09962,0.0598 0.061,-4.10074 13.89958,-0.13289 1.14391,9.78958 12.60007,5.17984 m -27.47975,2.26362 q -1.70316,-0.33442 -2.91433,-1.52275 -1.61555,-1.63463 -1.63753,-3.9348 -0.0222,-2.29992 1.56381,-3.91462 1.28663,-1.36276 3.03431,-1.62947 l -0.10013,0.009 0.94947,-0.0596 q 2.29975,-0.0222 3.96548,1.61239 l -0.0471,0.0148 q 1.61521,1.58489 1.63835,3.88415 0.0221,2.25001 -1.51057,3.96528 l -0.0466,0.0165 q -1.63401,1.61641 -3.88397,1.63842 l -1.00029,-0.0414 m 5.01753,12.25189 q 1.61493,1.58467 1.63804,3.83391 0.0221,2.29985 -1.56204,3.96498 l 0.0476,-0.0164 q -1.63459,1.6155 -3.93456,1.63751 l -1.30077,-0.089 q -1.45323,-0.33664 -2.61419,-1.47514 -1.6155,-1.63449 -1.63751,-3.93452 -0.0219,-2.24987 1.56227,-3.8654 1.18755,-1.26198 2.73516,-1.57666 l 0.0535,-0.0491 1.0991,-0.10893 q 2.24994,-0.0207 3.91619,1.6627"
     id="path925"
     style="fill:#000000;fill-opacity:0.1" />
  <path
     stroke="none"
     d="m 892.91431,101.40227 8.13619,11.08445 -6.57536,11.15287 5.16814,9.91385 -12.29405,8.09368 -2.09,-2.93179 1.49922,-0.91494 q 2.49887,-1.83477 2.97041,-4.91005 0.47149,-3.07524 -1.39223,-5.61459 -1.83469,-2.49882 -4.90976,-2.97035 -3.13456,-0.55245 -5.63343,1.28223 l -1.12015,1.0091 -3.87315,-5.53024 1.14715,-0.71852 q 2.49881,-1.83467 2.97058,-4.90985 0.44191,-3.11562 -1.39218,-5.61458 -1.86331,-2.53964 -4.93921,-3.01116 -3.07516,-0.47144 -5.57423,1.3624 l -0.85697,0.69141 -2.34527,-3.36458 11.20534,-8.224787 6.6453,7.278897 13.25321,-3.15358 m -20.9853,17.88468 q -1.57789,0.72308 -3.25508,0.46623 -2.26598,-0.38388 -3.62705,-2.23785 -1.36117,-1.8539 -1.01751,-4.09084 0.24901,-1.85758 1.51215,-3.09451 l -0.0782,0.062 0.73608,-0.6027 q 1.85381,-1.36114 4.16055,-1.00713 l -0.0382,0.0329 q 2.23675,0.34294 3.59762,2.19703 1.33168,1.81384 1.08757,4.10148 l -0.0376,0.0333 q -0.38387,2.26598 -2.19728,3.59759 l -0.83575,0.55131 m 11.22822,7.01607 q 2.23676,0.34287 3.56793,2.15685 1.36125,1.85399 1.04744,4.13102 l 0.0376,-0.0323 q -0.38387,2.26618 -2.23779,3.62723 l -1.10698,0.6887 q -1.37601,0.57585 -2.98363,0.32934 -2.26615,-0.3839 -3.62675,-2.23783 -1.33147,-1.81379 -0.9884,-4.05034 0.22699,-1.71777 1.30021,-2.87658 l 0.009,-0.0696 0.82757,-0.7315 q 1.81388,-1.33159 4.14982,-0.93739"
     id="path927"
     style="fill:#000000;fill-opacity:0.1" />
  <path
     stroke="none"
     d="m 503.31765,382.51484 -0.35568,-13.74549 11.76401,-5.40604 1.41337,-11.09028 14.71447,0.36923 0.0433,3.60011 -1.75311,-0.10419 q -3.09913,0.0803 -5.24152,2.33654 -2.14188,2.25644 -2.06063,5.40504 0.0802,3.09892 2.33629,5.24134 2.25869,2.24209 5.35782,2.16208 l 1.49547,-0.18895 0.0249,6.75166 -1.35217,-0.0657 q -3.09895,0.08 -5.24124,2.33636 -2.14111,2.30618 -2.06085,5.40509 0.0815,3.14913 2.33718,5.29158 2.25602,2.14274 5.35524,2.06258 l 1.09822,-0.0797 0.007,4.10127 -13.89539,0.35972 -1.30371,-9.76958 -12.6829,-4.9735 m 27.43913,-2.711 q 1.70867,0.30592 2.93911,1.47444 1.64182,1.60835 1.70176,3.90723 0.0597,2.29925 -1.49809,3.9403 -1.2647,1.38313 -3.00768,1.67835 l 0.1007,-0.009 -0.94852,0.0741 q -2.29903,0.0595 -3.99114,-1.54744 l 0.048,-0.0161 q -1.64073,-1.55823 -1.70016,-3.85738 -0.0583,-2.24932 1.44709,-3.98892 l 0.0474,-0.0147 q 1.60842,-1.64186 3.85733,-1.70019 l 1.001,0.0247 m -5.21662,-12.16855 q -1.64074,-1.55824 -1.69915,-3.80739 -0.0593,-2.29917 1.49758,-3.98979 l -0.0476,0.0143 q 1.60824,-1.6419 3.90714,-1.70189 l 1.30197,0.0673 q 1.45869,0.31209 2.63799,1.43234 1.64192,1.60835 1.70185,3.90723 0.0584,2.24916 -1.49965,3.89005 -1.1673,1.28067 -2.70872,1.62095 l -0.0478,0.0533 -1.09697,0.12851 q -2.24948,0.0585 -3.94278,-1.59872"
     id="path929"
     style="fill:#000000;fill-opacity:0.1" />
  <path
     stroke="none"
     d="m 339.90863,469.7598 q -5.19164,2.41894 -7.14284,7.77451 -1.98517,5.44972 0.45058,10.59442 2.46614,5.2086 7.82167,7.15989 5.35567,1.95104 10.59424,-0.45061 5.17467,-2.37214 7.16002,-7.82166 1.951,-5.3556 -0.46803,-10.54731 -2.44894,-5.25577 -7.80468,-7.20682 -5.35566,-1.95111 -10.6115,0.49766 m 16.39391,16.34969 q -1.60876,4.41599 -5.82177,6.33993 -4.23031,1.97113 -8.55246,0.39651 -4.32208,-1.57457 -6.29311,-5.80487 -1.98868,-4.18305 -0.37908,-8.59928 1.5746,-4.32208 5.80491,-6.29315 4.23018,-1.97119 8.55228,-0.39657 4.32213,1.57467 6.29325,5.80496 1.97123,4.23004 0.39653,8.55231 m 8.4957,-12.65658 q 3.69043,7.83683 0.71314,16.01098 -2.97805,8.17452 -10.86177,11.84786 -7.88357,3.67337 -16.05806,0.69511 -8.12725,-2.96084 -11.8477,-10.86156 -3.67329,-7.88376 -0.69512,-16.058 2.97802,-8.17457 10.84456,-11.80083 7.94778,-3.70317 16.07512,-0.74216 8.17444,2.978 11.83062,10.90864"
     id="path931"
     style="fill:#000000;fill-opacity:0.1" />
  <path
     stroke="none"
     d="m 879.26838,609.78161 q -4.71266,3.25505 -5.73849,8.86193 -1.04311,5.70523 2.22024,10.36865 3.30371,4.7221 8.91129,5.74743 5.60701,1.02518 10.3689,-2.22045 4.7036,-3.2059 5.74708,-8.91115 1.02495,-5.6071 -2.22921,-10.31962 -3.29553,-4.77053 -8.90212,-5.79667 -5.60689,-1.02497 -10.37786,2.26962 m 18.9025,13.36976 q -0.84656,4.62315 -4.67651,7.22643 -3.84012,2.65222 -8.3649,1.82421 -4.52503,-0.82757 -7.17734,-4.6674 -2.66125,-3.79077 -1.81543,-8.41403 0.82855,-4.52491 4.66743,-7.17743 3.84,-2.65216 8.36498,-1.82451 4.52468,0.82863 7.17748,4.66743 2.65204,3.8399 1.82421,8.36492 m 6.2541,-13.90142 q 4.95142,7.10732 3.38623,15.66509 -1.56617,8.55779 -8.72228,13.50052 -7.15588,4.94338 -15.71427,3.37732 -8.50873,-1.5572 -13.50069,-8.72243 -4.94337,-7.15587 -3.37723,-15.71393 1.56625,-8.55786 8.71283,-13.45168 7.21477,-4.98284 15.72327,-3.42656 8.55786,1.56607 13.49187,8.77111"
     id="path933"
     style="fill:#000000;fill-opacity:0.1" />
  <path
     stroke="none"
     d="m 387.10375,151.0997 q 5.60452,-1.18071 8.71778,-5.95505 3.1681,-4.85839 1.96069,-10.42108 -1.22228,-5.63195 -5.99701,-8.7452 -4.77472,-3.11343 -10.42114,-1.96055 -5.57726,1.13849 -8.74518,5.99684 -3.11342,4.77467 -1.93313,10.3792 1.19476,5.67382 5.9696,8.78729 4.77463,3.1133 10.44826,1.91871 m -12.26525,-19.6377 q 2.56714,-3.93706 7.10661,-4.85666 4.56674,-0.96212 8.41991,1.55078 3.85331,2.51251 4.81512,7.07923 0.98912,4.5249 -1.57763,8.46194 -2.51236,3.85305 -7.07905,4.81503 -4.56661,0.96211 -8.41994,-1.55072 -3.85313,-2.51252 -4.81498,-7.07934 -0.96172,-4.56667 1.55071,-8.41986 m -11.14138,10.40367 q -1.8195,-8.46906 2.9325,-15.7564 4.75193,-7.28764 13.26245,-9.08008 8.51083,-1.79186 15.79841,2.95972 7.2457,4.72458 9.07986,13.26262 1.7929,8.51069 -2.95888,15.79834 -4.75198,7.28747 -13.23528,9.03831 -8.57984,1.80729 -15.82551,-2.91774 -7.28768,-4.75202 -9.05281,-13.30456"
     id="path935"
     style="fill:#000000;fill-opacity:0.1" />
  <path
     stroke="none"
     id="path937"
     style="fill:#000000;fill-opacity:0.1;fill-rule:evenodd"
     d="" />
  <path
     stroke="none"
     d="m 779.07392,223.61937 q -2.28728,0.73037 -4.71634,0.13973 -3.59521,-0.87455 -5.49572,-4.06335 -1.94873,-3.20114 -1.07495,-6.7962 0.8858,-3.64388 4.07513,-5.54429 3.15257,-1.96056 6.7477,-1.08672 2.42892,0.59221 4.13789,2.24055 l 1.66357,-1.55093 8.80442,-9.33419 q 1.46921,-1.59808 3.59083,-1.64875 2.12195,-0.0499 3.65974,1.45586 l 0.50038,0.48179 q 1.54954,1.4573 1.59972,3.57915 0.0266,2.21913 -1.43076,3.76861 l -4.9025,5.13736 0.22967,-0.0985 1.841,-0.37569 12.7918,-0.33741 q 2.12201,-0.0499 3.6964,1.5163 1.501,1.44549 1.59971,3.57929 l -0.006,0.66692 q 0.0382,2.17053 -1.43089,3.76871 -1.50595,1.53761 -3.6278,1.5878 l -6.93561,0.16608 -0.42518,1.74915 6.08515,3.33158 q 1.86232,1.01825 2.48203,3.12479 0.58296,2.04571 -0.43505,3.90779 l -0.29887,0.59641 q -1.09102,1.94737 -3.08841,2.54196 -2.09429,0.57135 -3.95625,-0.44733 l -11.20994,-6.1729 q -0.86376,-0.46783 -1.4627,-1.17922 l -0.15922,-0.19282 1.98453,6.86314 q 0.57082,2.09458 -0.44655,3.9565 -1.03011,1.91077 -3.08782,2.54256 l -0.66552,0.19863 q -2.04567,0.58336 -3.90777,-0.43501 -1.86226,-1.01824 -2.43344,-3.11309 l -3.52438,-12.38307 0.006,-0.0484 -0.77755,-2.09292"
     id="path939"
     style="fill:#000000;fill-opacity:0.1" />
  <path
     stroke="none"
     d="m 455.90073,248.01056 q -2.32608,-0.59506 -4.07235,-2.38359 -2.5841,-2.64803 -2.50427,-6.35927 0.0454,-3.74738 2.69287,-6.33193 2.68369,-2.61925 6.39511,-2.53929 3.71245,0.0103 6.29691,2.65727 1.74659,1.78848 2.31955,4.09416 l 2.23261,-0.43259 12.41457,-3.24423 q 2.09294,-0.57601 3.91872,0.50704 1.82552,1.08286 2.33076,3.17514 l 0.16869,0.67377 q 0.5412,2.05731 -0.54398,3.88248 -1.15462,1.89525 -3.21174,2.43621 l -6.88083,1.75533 0.24697,0.0376 1.75998,0.65815 11.02415,6.49779 q 1.82526,1.08289 2.32944,3.24562 0.50586,2.0215 -0.54399,3.88248 l -0.35979,0.56177 q -1.11788,1.86092 -3.2114,2.4363 -2.09242,0.50501 -3.91778,-0.5782 l -5.96833,-3.53718 -1.28755,1.25756 3.39143,6.05212 q 1.03845,1.85114 0.44647,3.96536 -0.59049,2.04384 -2.44234,3.08161 l -0.56976,0.34695 q -1.95789,1.07224 -3.96654,0.51716 -2.07849,-0.62626 -3.11685,-2.4774 L 465.04222,260.671 q -0.48411,-0.85465 -0.61495,-1.77526 l -0.0318,-0.24807 -1.95708,6.87116 q -0.62631,2.07856 -2.47731,3.11688 -1.88677,1.07367 -3.96647,0.51712 l -0.66941,-0.18493 q -2.04372,-0.59053 -3.08198,-2.44156 -1.03819,-1.85131 -0.41217,-3.92987 l 3.57926,-12.36725 0.0307,-0.0376 0.44884,-2.18693"
     id="path941"
     style="fill:#000000;fill-opacity:0.1" />
  <path
     stroke="none"
     d="m 691.73977,471.68332 0.18244,0.45735 q 0.90015,2.53768 0.5511,5.02591 l -0.86877,2.96769 -0.33564,0.88741 -0.4614,1.53289 -0.004,3.90275 q 0.16815,0.80729 0.48182,1.72047 l 0.22256,0.70932 0.25523,4.914 -0.0712,0.44708 -20.63372,-0.81876 0.0678,-0.44755 -0.25513,-4.91411 q -0.0878,-0.30387 -0.22256,-0.70918 -0.31441,-0.91294 -0.48182,-1.7206 l 0.004,-3.90296 0.46126,-1.53266 0.33549,-0.8874 0.86881,-2.96778 q 0.34936,-2.48819 -0.55135,-5.02585 l -0.18167,-0.4576 -0.29992,-1.26293 20.63378,0.81817 0.30011,1.26284 m -21.40742,23.7199 37.17083,1.47506 -0.16625,4.19679 -37.17076,-1.47496 0.16624,-4.19676"
     id="path943"
     style="fill:#000000;fill-opacity:0.1" />
  <path
     stroke="none"
     d="m 472.44857,461.66717 -0.2519,0.42326 q -1.45959,2.26266 -3.64204,3.50682 l -2.87988,1.12596 -0.90734,0.27769 -1.49515,0.57147 -3.09298,2.38042 q -0.53535,0.62711 -1.06742,1.43277 l -0.42736,0.60828 -3.73475,3.2036 -0.39494,0.22166 -11.95656,-16.8365 0.39555,-0.22043 3.73494,-3.20354 q 0.185,-0.25649 0.42726,-0.60825 0.53178,-0.8061 1.06655,-1.43348 l 3.09283,-2.38058 1.49522,-0.57146 0.90722,-0.27759 2.88011,-1.12605 q 2.18288,-1.24389 3.64189,-3.50671 l 0.25185,-0.42332 0.81551,-1.01004 11.95654,16.83648 -0.81551,1.01 m -31.85663,-2.45869 21.53883,30.33024 -3.42456,2.43187 -21.53864,-30.33014 3.42446,-2.43183"
     id="path945"
     style="fill:#000000;fill-opacity:0.1" />
  <path
     stroke="none"
     d="m 532.23524,615.27341 0.45856,-0.17844 q 2.54394,-0.88214 5.02929,-0.51998 l 2.96228,0.88648 0.88596,0.34016 1.52973,0.47135 3.90274,0.0299 q 0.80803,-0.16334 1.7235,-0.47063 l 0.7097,-0.22069 4.91537,-0.22532 0.44699,0.0729 -0.94838,20.62804 -0.44717,-0.0722 -4.91533,0.22427 q -0.30248,0.0916 -0.70958,0.22065 -0.91494,0.30895 -1.7236,0.4715 l -3.90271,-0.0294 -1.52951,-0.4724 -0.8852,-0.34117 -2.96265,-0.88662 q -2.48572,-0.36362 -5.0292,0.51885 l -0.45851,0.17858 -1.26516,0.29103 0.94834,-20.62807 1.26461,-0.29299 m 23.5846,21.55606 1.70932,-37.16057 4.19532,0.19271 -1.70878,37.16073 -4.19571,-0.19262"
     id="path947"
     style="fill:#000000;fill-opacity:0.1" />
  <path
     stroke="none"
     d="m 906.73126,434.656 q -3.24976,-1.87115 -4.19905,-5.53305 l -0.29513,-1.49524 -0.0326,-0.24793 -0.0127,-0.11201 -2.53149,0.3877 -3.82659,-0.069 q -8.43774,-0.87736 -17.95178,-6.2983 l -0.0878,-0.0431 q -2.55693,-1.47167 -2.63111,-5.55259 -0.072,-4.08102 2.42157,-8.41407 2.49456,-4.33329 6.06126,-6.31862 3.56621,-1.98498 6.12264,-0.51301 l 0.0914,0.0393 q 9.46447,5.50715 14.45923,12.36428 1.34588,1.87121 2.07871,3.50455 l 0.87891,2.18009 q 0.80728,-0.40047 1.69507,-0.63956 3.61866,-0.97411 6.86852,0.89786 3.24984,1.87108 4.22426,5.48975 1.0179,3.64373 -0.87889,6.93691 -1.89603,3.29321 -5.58362,4.28507 -3.64353,1.018 -6.89344,-0.8533"
     id="path949"
     style="fill:#000000;fill-opacity:0.1" />
  <path
     stroke="none"
     d="m 949.07566,509.58327 q 3.62203,0.97218 5.48033,4.268 l 0.66683,1.37034 0.0981,0.22959 0.0357,0.10679 2.34652,-1.02658 3.71486,-0.91833 q 8.37953,-1.32182 18.96761,1.47148 l 0.0992,0.0139 q 2.84871,0.7668 3.96875,4.69042 1.12037,3.92502 -0.17705,8.7538 -1.29805,4.82869 -4.23325,7.66421 -2.93604,2.83525 -5.78512,2.07011 l -0.0996,-0.013 q -10.56207,-2.88918 -17.15157,-8.23144 -1.78139,-1.46281 -2.90916,-2.85298 l -1.41201,-1.87921 q -0.67801,0.59357 -1.47399,1.05374 -3.24692,1.8713 -6.86821,0.89875 -3.6217,-0.97332 -5.49349,-4.21981 -1.92037,-3.25944 -0.93364,-6.92955 0.98513,-3.66996 4.29416,-5.57706 3.25943,-1.9203 6.88113,-0.94724"
     id="path951"
     style="fill:#000000;fill-opacity:0.1" />
  <path
     stroke="none"
     d="m 582.55746,238.95973 q 2.10578,3.10278 1.35993,6.81159 l -0.38822,1.47386 -0.0771,0.23733 -0.0483,0.10148 2.44656,0.75804 3.41225,1.733 q 7.20692,4.47473 13.39796,13.5067 l 0.0591,0.0721 q 1.65774,2.44046 -0.0609,6.14418 -1.71575,3.70339 -5.85344,6.51091 -4.13729,2.80796 -8.2126,3.03612 -4.0753,0.22675 -5.73188,-2.21317 l -0.0606,-0.0732 q -6.1083,-9.08779 -7.60617,-17.43784 -0.39277,-2.27124 -0.33936,-4.06044 l 0.16059,-2.34522 q -0.90161,0.0114 -1.80484,-0.16165 -3.68053,-0.70579 -5.78684,-3.80728 -2.10597,-3.10274 -1.40206,-6.78337 0.67562,-3.72241 3.8203,-5.85645 3.14443,-2.13402 6.89448,-1.41683 3.72242,0.67563 5.82863,3.77876"
     id="path953"
     style="fill:#000000;fill-opacity:0.1" />
</svg>
